<mxfile host="app.diagrams.net" agent="Mozilla/5.0 (Windows NT 10.0; Win64; x64) AppleWebKit/537.36 (KHTML, like Gecko) Chrome/137.0.0.0 Safari/537.36" version="27.1.3">
  <diagram name="Page-1" id="21WMXhzJ2zg-fwKHLCzv">
    <mxGraphModel dx="1042" dy="658" grid="1" gridSize="10" guides="1" tooltips="1" connect="1" arrows="1" fold="1" page="1" pageScale="1" pageWidth="850" pageHeight="1400" math="0" shadow="0">
      <root>
        <mxCell id="0" />
        <mxCell id="1" parent="0" />
        <mxCell id="H78hWhUGeFQxsnce-33Z-144" value="" style="edgeStyle=orthogonalEdgeStyle;rounded=0;orthogonalLoop=1;jettySize=auto;html=1;" parent="1" source="iGaR8D7he8wnewN5H0VT-1" edge="1">
          <mxGeometry relative="1" as="geometry">
            <mxPoint x="587" y="404" as="targetPoint" />
          </mxGeometry>
        </mxCell>
        <mxCell id="iGaR8D7he8wnewN5H0VT-1" value="RX Antenna" style="rounded=0;whiteSpace=wrap;html=1;" parent="1" vertex="1">
          <mxGeometry x="527" y="297" width="120" height="60" as="geometry" />
        </mxCell>
        <mxCell id="iGaR8D7he8wnewN5H0VT-2" value="TX Antenna" style="rounded=0;whiteSpace=wrap;html=1;" parent="1" vertex="1">
          <mxGeometry x="307" y="297" width="120" height="60" as="geometry" />
        </mxCell>
        <mxCell id="H78hWhUGeFQxsnce-33Z-77" value="" style="edgeStyle=orthogonalEdgeStyle;rounded=0;orthogonalLoop=1;jettySize=auto;html=1;" parent="1" source="iGaR8D7he8wnewN5H0VT-3" target="H78hWhUGeFQxsnce-33Z-75" edge="1">
          <mxGeometry relative="1" as="geometry" />
        </mxCell>
        <mxCell id="iGaR8D7he8wnewN5H0VT-3" value="DAC" style="rounded=0;whiteSpace=wrap;html=1;" parent="1" vertex="1">
          <mxGeometry x="83" y="1194" width="120" height="60" as="geometry" />
        </mxCell>
        <mxCell id="3TPcWLnSbFzit0vJXgTz-5" value="" style="edgeStyle=orthogonalEdgeStyle;rounded=0;orthogonalLoop=1;jettySize=auto;html=1;" parent="1" source="iGaR8D7he8wnewN5H0VT-13" target="3TPcWLnSbFzit0vJXgTz-2" edge="1">
          <mxGeometry relative="1" as="geometry" />
        </mxCell>
        <mxCell id="iGaR8D7he8wnewN5H0VT-13" value="ADC" style="rounded=0;whiteSpace=wrap;html=1;" parent="1" vertex="1">
          <mxGeometry x="527" y="1194" width="120" height="60" as="geometry" />
        </mxCell>
        <mxCell id="3TPcWLnSbFzit0vJXgTz-4" value="" style="edgeStyle=orthogonalEdgeStyle;rounded=0;orthogonalLoop=1;jettySize=auto;html=1;" parent="1" source="3TPcWLnSbFzit0vJXgTz-2" target="iGaR8D7he8wnewN5H0VT-3" edge="1">
          <mxGeometry relative="1" as="geometry" />
        </mxCell>
        <mxCell id="H78hWhUGeFQxsnce-33Z-35" value="" style="edgeStyle=orthogonalEdgeStyle;rounded=0;orthogonalLoop=1;jettySize=auto;html=1;" parent="1" source="3TPcWLnSbFzit0vJXgTz-2" target="H78hWhUGeFQxsnce-33Z-33" edge="1">
          <mxGeometry relative="1" as="geometry" />
        </mxCell>
        <mxCell id="3TPcWLnSbFzit0vJXgTz-2" value="DSP, Buffering, Offload" style="whiteSpace=wrap;html=1;" parent="1" vertex="1">
          <mxGeometry x="307" y="1194" width="120" height="60" as="geometry" />
        </mxCell>
        <mxCell id="3TPcWLnSbFzit0vJXgTz-7" value="" style="triangle;whiteSpace=wrap;html=1;direction=south;" parent="1" vertex="1">
          <mxGeometry x="341" y="237" width="52" height="35" as="geometry" />
        </mxCell>
        <mxCell id="3TPcWLnSbFzit0vJXgTz-10" value="" style="endArrow=none;html=1;rounded=0;entryX=0;entryY=0.5;entryDx=0;entryDy=0;" parent="1" target="3TPcWLnSbFzit0vJXgTz-7" edge="1">
          <mxGeometry width="50" height="50" relative="1" as="geometry">
            <mxPoint x="367" y="297" as="sourcePoint" />
            <mxPoint x="367" y="237" as="targetPoint" />
          </mxGeometry>
        </mxCell>
        <mxCell id="3TPcWLnSbFzit0vJXgTz-11" value="" style="triangle;whiteSpace=wrap;html=1;direction=south;" parent="1" vertex="1">
          <mxGeometry x="561" y="237" width="52" height="35" as="geometry" />
        </mxCell>
        <mxCell id="3TPcWLnSbFzit0vJXgTz-12" value="" style="endArrow=none;html=1;rounded=0;entryX=0;entryY=0.5;entryDx=0;entryDy=0;" parent="1" target="3TPcWLnSbFzit0vJXgTz-11" edge="1">
          <mxGeometry width="50" height="50" relative="1" as="geometry">
            <mxPoint x="587" y="297" as="sourcePoint" />
            <mxPoint x="587" y="237" as="targetPoint" />
          </mxGeometry>
        </mxCell>
        <mxCell id="H78hWhUGeFQxsnce-33Z-3" value="Max 36 dBm EIRP per FCC" style="text;html=1;align=center;verticalAlign=middle;whiteSpace=wrap;rounded=0;" parent="1" vertex="1">
          <mxGeometry x="157" y="226" width="110" height="30" as="geometry" />
        </mxCell>
        <mxCell id="H78hWhUGeFQxsnce-33Z-33" value="Raspberry Pi UI" style="rounded=0;whiteSpace=wrap;html=1;" parent="1" vertex="1">
          <mxGeometry x="307" y="1321" width="120" height="60" as="geometry" />
        </mxCell>
        <mxCell id="H78hWhUGeFQxsnce-33Z-34" value="MCU&lt;div&gt;&lt;/div&gt;" style="rounded=0;whiteSpace=wrap;html=1;fillColor=none;verticalAlign=top;" parent="1" vertex="1">
          <mxGeometry x="47" y="1161" width="680" height="140" as="geometry" />
        </mxCell>
        <mxCell id="H78hWhUGeFQxsnce-33Z-42" value="Homemade cantenna. Space 15-20cm and angle away slightly" style="text;html=1;align=center;verticalAlign=middle;whiteSpace=wrap;rounded=0;" parent="1" vertex="1">
          <mxGeometry x="407" y="146" width="134" height="30" as="geometry" />
        </mxCell>
        <mxCell id="H78hWhUGeFQxsnce-33Z-78" value="" style="edgeStyle=orthogonalEdgeStyle;rounded=0;orthogonalLoop=1;jettySize=auto;html=1;" parent="1" source="H78hWhUGeFQxsnce-33Z-75" target="H78hWhUGeFQxsnce-33Z-76" edge="1">
          <mxGeometry relative="1" as="geometry" />
        </mxCell>
        <mxCell id="H78hWhUGeFQxsnce-33Z-75" value="Buffer Amp" style="rounded=0;whiteSpace=wrap;html=1;" parent="1" vertex="1">
          <mxGeometry x="83" y="1088" width="120" height="60" as="geometry" />
        </mxCell>
        <mxCell id="JRwQpZ3kfSk3DFTY2YPj-3" value="" style="edgeStyle=orthogonalEdgeStyle;rounded=0;orthogonalLoop=1;jettySize=auto;html=1;" edge="1" parent="1" source="H78hWhUGeFQxsnce-33Z-76" target="R6wI7GMw17Zh_FEQfNIx-1">
          <mxGeometry relative="1" as="geometry" />
        </mxCell>
        <mxCell id="H78hWhUGeFQxsnce-33Z-76" value="VCO&lt;div&gt;-3 dBm out&lt;/div&gt;" style="rounded=0;whiteSpace=wrap;html=1;" parent="1" vertex="1">
          <mxGeometry x="83" y="994" width="120" height="60" as="geometry" />
        </mxCell>
        <mxCell id="H78hWhUGeFQxsnce-33Z-89" value="" style="edgeStyle=orthogonalEdgeStyle;rounded=0;orthogonalLoop=1;jettySize=auto;html=1;" parent="1" source="H78hWhUGeFQxsnce-33Z-79" target="H78hWhUGeFQxsnce-33Z-88" edge="1">
          <mxGeometry relative="1" as="geometry" />
        </mxCell>
        <mxCell id="H78hWhUGeFQxsnce-33Z-79" value="Gain Stage&amp;nbsp;&lt;div&gt;17dB&lt;/div&gt;" style="rounded=0;whiteSpace=wrap;html=1;" parent="1" vertex="1">
          <mxGeometry x="83" y="783" width="120" height="60" as="geometry" />
        </mxCell>
        <mxCell id="H78hWhUGeFQxsnce-33Z-86" value="" style="edgeStyle=orthogonalEdgeStyle;rounded=0;orthogonalLoop=1;jettySize=auto;html=1;" parent="1" source="H78hWhUGeFQxsnce-33Z-80" target="H78hWhUGeFQxsnce-33Z-85" edge="1">
          <mxGeometry relative="1" as="geometry" />
        </mxCell>
        <mxCell id="H78hWhUGeFQxsnce-33Z-176" style="edgeStyle=orthogonalEdgeStyle;rounded=0;orthogonalLoop=1;jettySize=auto;html=1;exitX=0.5;exitY=0;exitDx=0;exitDy=0;entryX=0.5;entryY=1;entryDx=0;entryDy=0;" parent="1" source="H78hWhUGeFQxsnce-33Z-80" target="H78hWhUGeFQxsnce-33Z-175" edge="1">
          <mxGeometry relative="1" as="geometry" />
        </mxCell>
        <mxCell id="H78hWhUGeFQxsnce-33Z-80" value="Splitter&lt;div&gt;0.5 dB IL&lt;/div&gt;" style="rounded=0;whiteSpace=wrap;html=1;" parent="1" vertex="1">
          <mxGeometry x="307" y="694" width="120" height="60" as="geometry" />
        </mxCell>
        <mxCell id="H78hWhUGeFQxsnce-33Z-83" value="-3 dBm" style="text;html=1;align=center;verticalAlign=middle;whiteSpace=wrap;rounded=0;" parent="1" vertex="1">
          <mxGeometry x="170" y="960" width="60" height="30" as="geometry" />
        </mxCell>
        <mxCell id="H78hWhUGeFQxsnce-33Z-84" value="13 dBm" style="text;html=1;align=center;verticalAlign=middle;whiteSpace=wrap;rounded=0;" parent="1" vertex="1">
          <mxGeometry x="157" y="753" width="60" height="30" as="geometry" />
        </mxCell>
        <mxCell id="H78hWhUGeFQxsnce-33Z-150" value="" style="edgeStyle=orthogonalEdgeStyle;rounded=0;orthogonalLoop=1;jettySize=auto;html=1;" parent="1" source="H78hWhUGeFQxsnce-33Z-85" target="H78hWhUGeFQxsnce-33Z-148" edge="1">
          <mxGeometry relative="1" as="geometry" />
        </mxCell>
        <mxCell id="H78hWhUGeFQxsnce-33Z-85" value="Mixer&lt;div&gt;LO: 6-10 dBm&lt;/div&gt;&lt;div&gt;Max 17 dBm RF in&lt;/div&gt;" style="rounded=0;whiteSpace=wrap;html=1;" parent="1" vertex="1">
          <mxGeometry x="527" y="694" width="120" height="60" as="geometry" />
        </mxCell>
        <mxCell id="H78hWhUGeFQxsnce-33Z-90" value="" style="edgeStyle=orthogonalEdgeStyle;rounded=0;orthogonalLoop=1;jettySize=auto;html=1;" parent="1" source="H78hWhUGeFQxsnce-33Z-88" target="H78hWhUGeFQxsnce-33Z-80" edge="1">
          <mxGeometry relative="1" as="geometry" />
        </mxCell>
        <mxCell id="H78hWhUGeFQxsnce-33Z-88" value="BPF&lt;div&gt;dea202450&lt;br&gt;&lt;div&gt;1.3 dB IL&lt;/div&gt;&lt;div&gt;27 dBm max in&lt;/div&gt;&lt;/div&gt;" style="rounded=0;whiteSpace=wrap;html=1;" parent="1" vertex="1">
          <mxGeometry x="83" y="694" width="120" height="60" as="geometry" />
        </mxCell>
        <mxCell id="H78hWhUGeFQxsnce-33Z-91" value="11.7 dBm" style="text;html=1;align=center;verticalAlign=middle;resizable=0;points=[];autosize=1;strokeColor=none;fillColor=none;" parent="1" vertex="1">
          <mxGeometry x="217" y="694" width="70" height="30" as="geometry" />
        </mxCell>
        <mxCell id="H78hWhUGeFQxsnce-33Z-92" value="8.2 dBm" style="text;html=1;align=center;verticalAlign=middle;resizable=0;points=[];autosize=1;strokeColor=none;fillColor=none;" parent="1" vertex="1">
          <mxGeometry x="444" y="694" width="70" height="30" as="geometry" />
        </mxCell>
        <mxCell id="H78hWhUGeFQxsnce-33Z-97" value="" style="edgeStyle=orthogonalEdgeStyle;rounded=0;orthogonalLoop=1;jettySize=auto;html=1;" parent="1" source="H78hWhUGeFQxsnce-33Z-93" target="H78hWhUGeFQxsnce-33Z-96" edge="1">
          <mxGeometry relative="1" as="geometry" />
        </mxCell>
        <mxCell id="H78hWhUGeFQxsnce-33Z-93" value="PA&lt;div&gt;&amp;nbsp;34 dB gain&lt;/div&gt;" style="rounded=0;whiteSpace=wrap;html=1;" parent="1" vertex="1">
          <mxGeometry x="307" y="504" width="120" height="60" as="geometry" />
        </mxCell>
        <mxCell id="H78hWhUGeFQxsnce-33Z-95" value="8.2 dBm" style="text;html=1;align=center;verticalAlign=middle;resizable=0;points=[];autosize=1;strokeColor=none;fillColor=none;" parent="1" vertex="1">
          <mxGeometry x="362" y="664" width="70" height="30" as="geometry" />
        </mxCell>
        <mxCell id="H78hWhUGeFQxsnce-33Z-99" value="" style="edgeStyle=orthogonalEdgeStyle;rounded=0;orthogonalLoop=1;jettySize=auto;html=1;" parent="1" source="H78hWhUGeFQxsnce-33Z-96" target="iGaR8D7he8wnewN5H0VT-2" edge="1">
          <mxGeometry relative="1" as="geometry" />
        </mxCell>
        <mxCell id="H78hWhUGeFQxsnce-33Z-96" value="BPF&lt;div&gt;&lt;div&gt;1.3 dB IL&lt;/div&gt;&lt;/div&gt;&lt;div&gt;33dBm max in&lt;/div&gt;" style="rounded=0;whiteSpace=wrap;html=1;" parent="1" vertex="1">
          <mxGeometry x="307" y="404" width="120" height="60" as="geometry" />
        </mxCell>
        <mxCell id="H78hWhUGeFQxsnce-33Z-98" value="26.2 dBm" style="text;html=1;align=center;verticalAlign=middle;resizable=0;points=[];autosize=1;strokeColor=none;fillColor=none;" parent="1" vertex="1">
          <mxGeometry x="367" y="472" width="70" height="30" as="geometry" />
        </mxCell>
        <mxCell id="H78hWhUGeFQxsnce-33Z-100" value="24.9 dBm" style="text;html=1;align=center;verticalAlign=middle;resizable=0;points=[];autosize=1;strokeColor=none;fillColor=none;" parent="1" vertex="1">
          <mxGeometry x="367" y="364" width="70" height="30" as="geometry" />
        </mxCell>
        <mxCell id="H78hWhUGeFQxsnce-33Z-101" value="30.5 - 32.5 EIRP" style="text;html=1;align=center;verticalAlign=middle;resizable=0;points=[];autosize=1;strokeColor=none;fillColor=none;" parent="1" vertex="1">
          <mxGeometry x="312" y="207" width="110" height="30" as="geometry" />
        </mxCell>
        <mxCell id="H78hWhUGeFQxsnce-33Z-145" value="" style="edgeStyle=orthogonalEdgeStyle;rounded=0;orthogonalLoop=1;jettySize=auto;html=1;" parent="1" target="H78hWhUGeFQxsnce-33Z-142" edge="1">
          <mxGeometry relative="1" as="geometry">
            <mxPoint x="587" y="464" as="sourcePoint" />
          </mxGeometry>
        </mxCell>
        <mxCell id="H78hWhUGeFQxsnce-33Z-146" value="" style="edgeStyle=orthogonalEdgeStyle;rounded=0;orthogonalLoop=1;jettySize=auto;html=1;" parent="1" source="H78hWhUGeFQxsnce-33Z-142" target="H78hWhUGeFQxsnce-33Z-85" edge="1">
          <mxGeometry relative="1" as="geometry" />
        </mxCell>
        <mxCell id="H78hWhUGeFQxsnce-33Z-142" value="LNA&lt;div&gt;17-20 dB Gain&lt;/div&gt;" style="whiteSpace=wrap;html=1;" parent="1" vertex="1">
          <mxGeometry x="527" y="504" width="120" height="60" as="geometry" />
        </mxCell>
        <mxCell id="H78hWhUGeFQxsnce-33Z-143" value="*If you&#39;re careful, power limiter&amp;nbsp;&lt;div&gt;not needed. Isolation + not too&amp;nbsp;&lt;/div&gt;&lt;div&gt;close to anything!&lt;span style=&quot;background-color: transparent; color: light-dark(rgb(0, 0, 0), rgb(255, 255, 255));&quot;&gt;.&lt;/span&gt;&lt;/div&gt;" style="text;html=1;align=center;verticalAlign=middle;resizable=0;points=[];autosize=1;strokeColor=none;fillColor=none;" parent="1" vertex="1">
          <mxGeometry x="630" y="116" width="190" height="60" as="geometry" />
        </mxCell>
        <mxCell id="H78hWhUGeFQxsnce-33Z-151" value="" style="edgeStyle=orthogonalEdgeStyle;rounded=0;orthogonalLoop=1;jettySize=auto;html=1;" parent="1" source="H78hWhUGeFQxsnce-33Z-148" target="H78hWhUGeFQxsnce-33Z-149" edge="1">
          <mxGeometry relative="1" as="geometry" />
        </mxCell>
        <mxCell id="H78hWhUGeFQxsnce-33Z-148" value="LPF&lt;div&gt;150 kHz CO&lt;/div&gt;" style="whiteSpace=wrap;html=1;" parent="1" vertex="1">
          <mxGeometry x="527" y="788" width="120" height="60" as="geometry" />
        </mxCell>
        <mxCell id="H78hWhUGeFQxsnce-33Z-149" value="Amp/Offset&lt;div&gt;Tunable&lt;/div&gt;" style="whiteSpace=wrap;html=1;" parent="1" vertex="1">
          <mxGeometry x="527" y="990" width="120" height="60" as="geometry" />
        </mxCell>
        <mxCell id="H78hWhUGeFQxsnce-33Z-154" style="edgeStyle=orthogonalEdgeStyle;rounded=0;orthogonalLoop=1;jettySize=auto;html=1;exitX=0.5;exitY=1;exitDx=0;exitDy=0;entryX=0.794;entryY=0.221;entryDx=0;entryDy=0;entryPerimeter=0;" parent="1" source="H78hWhUGeFQxsnce-33Z-149" target="H78hWhUGeFQxsnce-33Z-34" edge="1">
          <mxGeometry relative="1" as="geometry" />
        </mxCell>
        <mxCell id="H78hWhUGeFQxsnce-33Z-155" value="BPF&lt;div&gt;dea202450&lt;br&gt;&lt;div&gt;1.3 dB IL&lt;/div&gt;&lt;div&gt;27 dBm max in&lt;/div&gt;&lt;/div&gt;" style="rounded=0;whiteSpace=wrap;html=1;" parent="1" vertex="1">
          <mxGeometry x="527" y="404" width="120" height="60" as="geometry" />
        </mxCell>
        <mxCell id="H78hWhUGeFQxsnce-33Z-157" value="target 24-26" style="text;html=1;align=center;verticalAlign=middle;resizable=0;points=[];autosize=1;strokeColor=none;fillColor=none;" parent="1" vertex="1">
          <mxGeometry x="190" y="364" width="90" height="30" as="geometry" />
        </mxCell>
        <mxCell id="H78hWhUGeFQxsnce-33Z-159" value="target -30 dBm in mixer minimum" style="text;html=1;align=center;verticalAlign=middle;whiteSpace=wrap;rounded=0;" parent="1" vertex="1">
          <mxGeometry x="700" y="740" width="95" height="30" as="geometry" />
        </mxCell>
        <mxCell id="H78hWhUGeFQxsnce-33Z-161" value="-45 to 0 dBm" style="text;html=1;align=center;verticalAlign=middle;resizable=0;points=[];autosize=1;strokeColor=none;fillColor=none;" parent="1" vertex="1">
          <mxGeometry x="685" y="364" width="90" height="30" as="geometry" />
        </mxCell>
        <mxCell id="H78hWhUGeFQxsnce-33Z-162" value="-46.3 to -1.3" style="text;html=1;align=center;verticalAlign=middle;resizable=0;points=[];autosize=1;strokeColor=none;fillColor=none;" parent="1" vertex="1">
          <mxGeometry x="680" y="464" width="90" height="30" as="geometry" />
        </mxCell>
        <mxCell id="H78hWhUGeFQxsnce-33Z-163" value="15 - 18 gain" style="text;html=1;align=center;verticalAlign=middle;resizable=0;points=[];autosize=1;strokeColor=none;fillColor=none;" parent="1" vertex="1">
          <mxGeometry x="680" y="526" width="90" height="30" as="geometry" />
        </mxCell>
        <mxCell id="H78hWhUGeFQxsnce-33Z-164" value="Pls Work" style="shape=umlActor;verticalLabelPosition=bottom;verticalAlign=top;html=1;outlineConnect=0;" parent="1" vertex="1">
          <mxGeometry x="10" y="450" width="130" height="170" as="geometry" />
        </mxCell>
        <mxCell id="H78hWhUGeFQxsnce-33Z-165" value="" style="ellipse;whiteSpace=wrap;html=1;" parent="1" vertex="1">
          <mxGeometry x="60" y="458" width="13" height="10" as="geometry" />
        </mxCell>
        <mxCell id="H78hWhUGeFQxsnce-33Z-166" value="" style="ellipse;whiteSpace=wrap;html=1;" parent="1" vertex="1">
          <mxGeometry x="83" y="458" width="13" height="10" as="geometry" />
        </mxCell>
        <mxCell id="H78hWhUGeFQxsnce-33Z-171" value="" style="curved=1;endArrow=classic;html=1;rounded=0;entryX=0.615;entryY=0.294;entryDx=0;entryDy=0;entryPerimeter=0;" parent="1" target="H78hWhUGeFQxsnce-33Z-164" edge="1">
          <mxGeometry width="50" height="50" relative="1" as="geometry">
            <mxPoint x="60" y="490" as="sourcePoint" />
            <mxPoint x="100" y="500" as="targetPoint" />
            <Array as="points">
              <mxPoint x="80" y="470" />
            </Array>
          </mxGeometry>
        </mxCell>
        <mxCell id="H78hWhUGeFQxsnce-33Z-179" style="edgeStyle=orthogonalEdgeStyle;rounded=0;orthogonalLoop=1;jettySize=auto;html=1;exitX=0.5;exitY=0;exitDx=0;exitDy=0;" parent="1" source="H78hWhUGeFQxsnce-33Z-175" target="H78hWhUGeFQxsnce-33Z-93" edge="1">
          <mxGeometry relative="1" as="geometry" />
        </mxCell>
        <mxCell id="H78hWhUGeFQxsnce-33Z-175" value="Attenuators&lt;div&gt;16 dB&lt;/div&gt;" style="rounded=0;whiteSpace=wrap;html=1;" parent="1" vertex="1">
          <mxGeometry x="306" y="600" width="120" height="60" as="geometry" />
        </mxCell>
        <mxCell id="H78hWhUGeFQxsnce-33Z-180" value="-7.8 dBm" style="text;html=1;align=center;verticalAlign=middle;whiteSpace=wrap;rounded=0;" parent="1" vertex="1">
          <mxGeometry x="372" y="571" width="60" height="30" as="geometry" />
        </mxCell>
        <mxCell id="JRwQpZ3kfSk3DFTY2YPj-5" style="edgeStyle=orthogonalEdgeStyle;rounded=0;orthogonalLoop=1;jettySize=auto;html=1;exitX=0.5;exitY=0;exitDx=0;exitDy=0;entryX=0.5;entryY=1;entryDx=0;entryDy=0;" edge="1" parent="1" source="R6wI7GMw17Zh_FEQfNIx-1" target="H78hWhUGeFQxsnce-33Z-79">
          <mxGeometry relative="1" as="geometry" />
        </mxCell>
        <mxCell id="R6wI7GMw17Zh_FEQfNIx-1" value="1 dB att" style="whiteSpace=wrap;html=1;" parent="1" vertex="1">
          <mxGeometry x="83" y="890" width="120" height="60" as="geometry" />
        </mxCell>
        <mxCell id="JRwQpZ3kfSk3DFTY2YPj-6" value="-4 dBm" style="text;html=1;align=center;verticalAlign=middle;whiteSpace=wrap;rounded=0;" vertex="1" parent="1">
          <mxGeometry x="157" y="848" width="60" height="30" as="geometry" />
        </mxCell>
      </root>
    </mxGraphModel>
  </diagram>
</mxfile>
